<svg version="1.1" id="Layer_1" xmlns="http://www.w3.org/2000/svg" xmlns:xlink="http://www.w3.org/1999/xlink" x="0px" y="0px"
	 width="100%" viewBox="0 0 800 800" enable-background="new 0 0 800 800" xml:space="preserve">
<path fill="#000000" opacity="1.000000" stroke="none" 
	d="
M520.000000,801.000000 
	C348.166656,801.000000 176.833313,800.985718 5.500059,801.093811 
	C1.750685,801.096191 0.905242,800.249146 0.906701,796.499939 
	C1.009313,532.833313 1.009313,269.166656 0.906701,5.500036 
	C0.905242,1.750842 1.750842,0.905244 5.500036,0.906702 
	C269.166656,1.009302 532.833313,1.009302 796.499939,0.906703 
	C800.249146,0.905244 801.094788,1.750842 801.093323,5.500036 
	C800.990723,269.166656 800.990662,532.833313 801.093323,796.499939 
	C801.094788,800.249146 800.249756,801.099976 796.499878,801.095032 
	C704.500061,800.973572 612.500000,801.000000 520.000000,801.000000 
z"/>
<path fill="#ED43E4" opacity="1.000000" stroke="none" 
	d="
M216.375793,305.434937 
	C223.324097,285.127197 233.136688,266.791321 246.889771,250.351227 
	C265.117035,228.562805 286.875702,211.578018 312.332458,199.404739 
	C329.906036,191.001160 348.611969,186.088242 367.879517,182.810791 
	C382.416656,180.337997 396.936981,180.695374 411.416351,181.181320 
	C434.473663,181.955139 456.484131,187.769180 477.790070,196.826324 
	C494.524353,203.940063 509.809662,213.331879 523.833252,224.581329 
	C540.168579,237.685196 553.746643,253.444366 564.877197,271.335480 
	C571.510498,281.997864 575.987610,293.534546 580.694946,305.528503 
	C572.252075,309.390289 563.690674,312.825317 555.121216,316.240051 
	C553.717407,316.799438 552.269836,317.080383 550.415161,316.374756 
	C545.137146,304.601898 539.436157,293.498474 531.343628,283.609711 
	C522.571899,272.891022 512.710266,263.463654 501.683075,255.140472 
	C488.493225,245.184982 473.792664,238.116257 458.287903,232.823212 
	C444.147919,227.996048 429.558136,225.135117 414.577942,223.784790 
	C406.452545,223.052368 398.370178,222.825348 390.313782,223.120163 
	C375.330658,223.668381 360.584808,226.124237 346.152679,230.374741 
	C330.098175,235.103058 314.741150,241.375381 300.786560,250.707123 
	C289.628998,258.168427 279.500061,266.678955 270.353485,276.733948 
	C259.730164,288.412292 253.311401,302.340149 245.456955,315.884583 
	C244.011322,316.302521 242.847092,316.777771 241.721451,316.309906 
	C233.330322,312.822296 224.568604,310.215454 216.375793,305.434937 
z"/>
<path fill="#ED43E4" opacity="1.000000" stroke="none" 
	d="
M411.327820,488.825134 
	C414.737946,491.588654 414.804932,493.945496 411.765167,496.815460 
	C397.067566,510.692261 382.794006,525.035156 367.759155,538.532227 
	C356.668915,548.488098 346.622223,559.694763 333.834442,567.727722 
	C324.682861,573.476501 314.856628,576.742615 304.045654,576.995728 
	C302.713531,577.026917 301.378387,576.957275 300.047424,577.007324 
	C292.547913,577.289124 291.971954,577.822998 290.992371,585.269409 
	C290.056854,592.380798 284.241516,598.026184 277.878815,597.999939 
	C271.461670,597.973450 266.223724,592.581238 265.976562,586.125366 
	C263.766418,528.396667 265.762299,470.643951 264.842224,412.912354 
	C264.689880,403.352570 266.918365,393.949677 265.606323,384.331085 
	C264.979980,379.739655 273.085052,374.321991 278.429138,375.171539 
	C288.141052,376.715454 289.840363,381.035034 290.203186,388.253723 
	C292.033417,424.669983 290.388824,461.089996 290.988281,497.499542 
	C291.091766,503.781921 292.195618,504.420013 298.113251,502.035492 
	C302.291809,500.351685 305.652740,497.683594 308.871918,494.659698 
	C318.507874,485.608154 328.172729,476.586578 337.896576,467.629608 
	C343.397247,462.562683 343.821808,461.531708 338.164459,456.844177 
	C330.360748,450.378113 324.047455,442.108887 314.817291,437.370056 
	C314.386292,437.148804 313.908417,436.943634 313.434784,436.891785 
	C304.694061,435.934875 304.062073,429.557129 304.004089,422.804932 
	C303.978363,419.806183 303.994202,416.807068 304.000031,413.808105 
	C304.011230,408.045227 305.193970,406.972626 310.757599,408.045654 
	C319.657013,409.762146 327.669220,413.554749 334.674438,419.234802 
	C350.028778,431.684662 363.472565,446.164032 377.546173,459.974365 
	C379.674713,462.063110 379.210327,463.570099 377.215851,465.297791 
	C366.668915,474.434082 357.241455,484.754700 346.717041,493.937286 
	C338.607727,501.012726 331.218964,508.907623 323.250336,516.152832 
	C317.383881,521.486633 311.437439,526.867432 303.172089,528.479309 
	C302.053223,528.697510 300.949982,528.953979 299.812988,528.993530 
	C290.999939,529.300598 290.999725,529.295410 290.999786,537.913452 
	C290.999786,540.579163 291.233215,543.270325 290.946259,545.904785 
	C290.499023,550.010437 292.624725,550.840088 296.136047,551.053345 
	C309.358948,551.856445 320.157715,547.021362 329.621002,537.976990 
	C342.510468,525.658081 355.839478,513.800293 368.816010,501.570740 
	C376.940643,493.913757 384.702667,485.882324 392.937714,478.323914 
	C396.113861,475.408752 398.258575,475.859344 400.812622,478.328369 
	C404.284790,481.684967 407.645905,485.156433 411.327820,488.825134 
z"/>
<path fill="#ED43E4" opacity="1.000000" stroke="none" 
	d="
M421.248199,531.749023 
	C412.999146,523.500061 412.963562,523.464050 420.885925,515.630920 
	C432.239685,504.405090 430.641724,504.528076 442.127625,515.569580 
	C452.014862,525.074280 461.889130,534.623169 472.265228,543.577637 
	C479.138184,549.508972 487.699615,551.428467 496.853851,551.067322 
	C504.990204,550.746399 505.000153,550.999939 505.000183,543.077820 
	C505.000214,540.579285 504.639984,538.016174 505.073975,535.595459 
	C506.024384,530.294312 502.724823,528.917908 498.807709,529.100159 
	C487.667511,529.618286 479.705292,523.820862 472.195892,516.718323 
	C454.479156,499.961731 436.260742,483.741547 418.916595,466.580750 
	C415.508789,463.208984 415.754639,461.430969 419.044220,458.330200 
	C430.758820,447.288147 442.094299,435.844391 453.787262,424.778809 
	C465.020966,414.147766 477.851929,407.017273 494.008942,407.983887 
	C496.803894,408.151123 499.364563,406.646088 502.277130,406.901672 
	C505.195892,407.157806 504.949829,404.687042 505.013275,402.657715 
	C505.203217,396.579620 504.374298,390.460754 505.991058,384.438690 
	C507.471130,378.925659 513.157837,374.544861 518.522339,375.012146 
	C525.803833,375.646423 530.994080,380.786835 530.995789,387.429810 
	C531.004700,422.613892 531.000000,457.797943 531.000000,492.982025 
	C531.000000,522.915100 531.000000,552.848206 530.999878,582.781311 
	C530.999878,591.634277 526.321655,597.723816 519.219299,597.988159 
	C511.178589,598.287354 505.674011,592.184814 505.265411,583.494690 
	C504.989502,577.627441 503.029205,576.568481 497.932678,576.939331 
	C477.983765,578.390564 461.913177,570.297058 447.999451,556.593445 
	C439.416931,548.140564 430.348724,540.180847 421.248199,531.749023 
z"/>
<path fill="#ED43E4" opacity="1.000000" stroke="none" 
	d="
M243.851776,393.158539 
	C246.623581,394.979370 246.995468,397.698730 246.995758,400.528839 
	C247.002167,461.814606 246.964890,523.100403 247.074036,584.385986 
	C247.081833,588.765503 245.165878,589.615295 241.587799,588.825256 
	C233.054428,586.941040 224.517990,584.641907 217.345459,579.596863 
	C205.672516,571.386292 197.269989,560.824158 194.867584,546.053040 
	C193.546021,537.927429 194.113419,529.869934 194.063843,521.793274 
	C193.896225,494.482147 194.075912,467.168945 193.923721,439.857666 
	C193.898224,435.282806 194.536057,431.164642 196.900665,427.193451 
	C198.478210,424.544098 199.172012,421.470551 199.562958,418.128723 
	C209.771591,401.460052 225.523300,395.396759 243.851776,393.158539 
z"/>
<path fill="#ED43E4" opacity="1.000000" stroke="none" 
	d="
M373.291077,409.211700 
	C370.122223,411.858887 368.321045,416.364807 364.567108,416.710388 
	C360.935913,417.044739 358.760071,412.684906 356.238068,410.382202 
	C346.366547,401.369019 336.794098,391.958862 327.853760,382.027222 
	C323.948395,377.688812 322.347687,371.795746 321.792053,365.483948 
	C320.869843,355.008301 323.712524,346.165741 329.969727,338.026917 
	C334.794464,331.751343 341.295258,328.555786 348.833527,326.993164 
	C366.235321,323.385925 378.550964,332.408813 390.031891,343.525696 
	C391.228760,344.684570 392.621857,345.728943 393.519562,347.092621 
	C396.708191,351.936218 399.524506,350.049622 402.590332,346.944824 
	C407.587738,341.883881 412.466187,336.686371 418.139832,332.339630 
	C420.222168,330.744324 422.567963,329.795685 425.037964,328.905853 
	C438.983673,323.881775 452.077484,325.433411 463.251862,335.170227 
	C473.044525,343.703125 478.895294,360.090881 472.093506,374.710480 
	C469.994934,379.221130 467.512726,383.265503 463.848572,386.739471 
	C452.643463,397.362823 441.764252,408.331146 430.511169,418.902283 
	C420.182068,428.605438 409.500549,437.932709 399.058868,447.517731 
	C397.542969,448.909241 396.828400,448.944855 395.020355,447.698334 
	C389.616241,443.972504 385.768524,438.692932 380.927795,434.436676 
	C379.400635,433.093842 380.255005,432.221222 381.280853,431.203857 
	C392.397949,420.178497 403.402100,409.037018 414.641388,398.137939 
	C422.146088,390.860413 429.973297,383.915131 437.670746,376.837006 
	C439.721344,374.951385 441.578644,372.918365 443.973633,371.326752 
	C446.357117,369.742828 448.799408,367.574432 448.939087,364.309662 
	C449.083008,360.944977 449.788635,357.235687 446.072021,355.022644 
	C441.853333,352.510681 437.352234,351.759216 433.116028,354.516541 
	C429.442841,356.907379 426.038025,359.785156 422.806152,362.764099 
	C415.618652,369.389099 408.509674,376.107605 401.582153,383.002502 
	C398.530426,386.039856 396.540955,386.185516 393.260834,382.949463 
	C383.615448,373.433655 373.580231,364.309174 363.592834,355.145691 
	C359.627960,351.507935 352.069397,352.122192 348.403015,356.096191 
	C344.568390,360.252533 344.980469,364.562988 349.891357,369.350891 
	C359.396484,378.617859 368.814270,387.985626 378.611877,396.935425 
	C382.161774,400.178131 381.874329,402.332062 378.515717,404.985901 
	C376.851532,406.300903 375.206024,407.639618 373.291077,409.211700 
z"/>
<path fill="#ED43E4" opacity="1.000000" stroke="none" 
	d="
M598.528931,421.697815 
	C605.368835,461.783539 600.786682,501.967896 601.843689,542.003540 
	C602.214966,556.067139 594.724487,567.039124 584.256042,575.949158 
	C575.623047,583.296997 565.116272,586.446899 554.342346,588.876099 
	C551.587097,589.497253 549.801270,588.604370 549.974915,585.309387 
	C550.106140,582.819336 550.000061,580.316711 550.000061,577.819702 
	C550.000000,520.221313 549.984436,462.622894 550.033875,405.024536 
	C550.037292,401.054901 547.813110,396.590302 552.543640,393.163330 
	C559.488647,394.635773 566.127991,395.817017 572.443298,398.385895 
	C583.856201,403.028351 591.740417,411.447296 598.528931,421.697815 
z"/>
<path fill="#ED43E4" opacity="1.000000" stroke="none" 
	d="
M172.390167,435.116089 
	C174.429947,433.109283 175.328125,434.468506 175.876709,435.922150 
	C176.208893,436.802368 175.998138,437.894867 175.998245,438.891998 
	C176.001648,472.007751 176.004837,505.123505 175.990417,538.239258 
	C175.989655,539.984741 176.555573,542.072632 174.245758,542.889587 
	C172.475082,543.515991 171.472565,542.122314 170.541458,540.994141 
	C164.446304,533.608643 158.000122,526.489685 153.920929,517.641907 
	C150.493683,510.208221 148.723557,502.522095 147.823441,494.325836 
	C146.072372,478.380707 150.230606,464.208466 158.566269,450.963593 
	C162.261215,445.092529 167.182434,440.210175 172.390167,435.116089 
z"/>
<path fill="#ED43E4" opacity="1.000000" stroke="none" 
	d="
M646.976929,470.286713 
	C654.777283,501.054565 640.424438,530.178101 621.000000,544.236755 
	C621.000000,542.090271 621.000000,540.345093 621.000000,538.599976 
	C621.000000,505.793945 620.962769,472.987732 621.093201,440.182220 
	C621.100952,438.233002 619.226746,435.357391 621.432495,434.438507 
	C623.893860,433.413116 624.957947,436.769257 626.609741,438.182587 
	C636.553040,446.690369 642.718140,457.669708 646.976929,470.286713 
z"/>
<path fill="#ED43E4" opacity="1.000000" stroke="none" 
	d="
M584.710449,321.893921 
	C587.934387,330.323364 590.059814,338.840881 590.010498,347.787933 
	C589.962158,356.559753 589.956909,365.332336 590.016541,374.104004 
	C590.051086,379.180481 590.136414,384.248077 588.907227,389.673828 
	C587.451538,391.220032 585.984131,390.876831 584.665405,390.134064 
	C577.013733,385.824341 568.814636,382.886658 560.467712,380.295563 
	C559.678894,380.050720 559.061829,379.452240 558.368042,378.438629 
	C558.111450,369.868805 557.967163,361.627686 558.027100,353.388031 
	C558.077209,346.510834 556.686218,339.959503 554.213440,333.083954 
	C562.186707,329.393036 570.243042,326.512512 578.147156,323.237122 
	C580.096252,322.429382 582.087280,321.492065 584.710449,321.893921 
z"/>
<path fill="#ED43E4" opacity="1.000000" stroke="none" 
	d="
M241.563141,333.609985 
	C241.283447,339.643585 239.561478,345.173981 238.818008,350.930359 
	C237.675385,359.777222 237.729126,368.474091 238.906952,377.671387 
	C237.766098,379.546295 236.178360,379.953003 234.548538,380.332458 
	C226.948227,382.102081 219.711823,384.783234 213.006912,388.844940 
	C211.468414,389.776978 209.812714,390.622650 207.524078,390.256744 
	C204.938141,367.650787 205.392853,345.317932 210.689819,322.981537 
	C212.122955,322.282257 213.279785,321.860626 214.407990,322.265564 
	C223.537766,325.542358 232.877197,328.318268 241.563141,333.609985 
z"/>
<path fill="#FEF8FE" opacity="1.000000" stroke="none" 
	d="
M207.103043,390.517792 
	C216.532776,383.763824 226.420151,378.749695 238.413208,378.075378 
	C240.558777,382.926910 242.284973,387.746552 244.104950,392.803894 
	C244.236572,396.030701 241.666565,395.746033 240.031021,395.925903 
	C226.114334,397.456329 214.551437,403.474945 204.878784,413.514496 
	C203.352112,415.099091 203.128998,417.967285 200.117844,418.123840 
	C200.465240,411.393005 204.465012,405.883179 205.435074,399.455902 
	C205.866608,396.596710 206.498215,393.767731 207.103043,390.517792 
z"/>
<path fill="#FEF8FE" opacity="1.000000" stroke="none" 
	d="
M558.010132,378.463257 
	C569.054749,379.813171 578.920044,384.091400 588.483826,390.058960 
	C588.882141,393.419708 588.931458,396.729584 589.036438,400.488861 
	C589.882446,402.361389 589.304565,403.923889 589.689453,405.754608 
	C591.795471,411.768188 597.015869,415.468384 598.869751,421.533142 
	C597.711670,422.767853 596.928467,422.670074 596.082275,421.361176 
	C586.368835,406.336060 572.548889,397.944733 554.792725,395.994659 
	C553.469177,395.849304 552.554810,395.412415 552.829224,393.418823 
	C557.354187,389.206085 555.518005,383.289886 558.010132,378.463257 
z"/>
<path fill="#FEF8FE" opacity="1.000000" stroke="none" 
	d="
M585.008728,321.547913 
	C581.440002,325.533417 576.296448,325.913513 571.926575,327.967133 
	C567.337036,330.123993 562.504639,331.763733 557.781616,333.637543 
	C556.776611,334.036255 555.843201,333.955963 554.604187,332.942383 
	C552.840698,327.381805 551.437256,322.197296 550.041016,316.623352 
	C558.894653,312.560944 567.734924,308.873230 576.595154,305.234009 
	C577.696533,304.781616 578.869812,304.973206 580.387207,305.741394 
	C582.189331,311.036133 583.557922,316.098511 585.008728,321.547913 
z"/>
<path fill="#FEF8FE" opacity="1.000000" stroke="none" 
	d="
M241.896942,333.482666 
	C237.352570,334.296265 233.750290,331.630646 229.801346,330.288971 
	C223.664719,328.203979 217.716858,325.563416 211.368744,322.962158 
	C212.037491,316.926636 213.025436,311.086975 216.019928,305.442139 
	C222.681702,305.120148 227.925171,308.986511 233.787689,310.968964 
	C237.513947,312.229004 241.099213,313.906006 244.942078,315.710205 
	C244.077957,321.708038 243.019485,327.391785 241.896942,333.482666 
z"/>
<path fill="#EF42E6" opacity="1.000000" stroke="none" 
	d="
M589.906372,405.709564 
	C588.445312,404.854218 589.258789,403.180481 589.041260,401.326172 
	C590.838745,402.101776 589.650208,403.861542 589.906372,405.709564 
z"/>
<path fill="#000000" opacity="1.000000" stroke="none" 
	d="
M493.240631,434.000061 
	C505.000244,433.999542 505.000214,433.999542 505.000183,445.256287 
	C505.000122,463.062683 505.007782,480.869080 504.995209,498.675476 
	C504.991516,503.900604 503.961304,504.610046 498.906189,502.959473 
	C494.350342,501.471893 490.557037,498.895111 487.011841,495.621704 
	C476.409637,485.832489 466.279663,475.566193 455.891998,465.563690 
	C452.746490,462.534790 453.156708,461.050049 456.053680,458.303925 
	C462.628998,452.071075 469.092499,445.764648 476.225952,440.123932 
	C481.195953,436.193970 486.769501,434.717896 493.240631,434.000061 
z"/>
</svg>